/* XPM */
static char *biere1673526608[] = {
/* columns rows colors chars-per-pixel */
"32 32 147 2 ",
"   c #1E3F5A",
".  c #22415C",
"X  c #204766",
"o  c #2A4A65",
"O  c #264D6B",
"+  c #284C6A",
"@  c #265173",
"#  c #29577A",
"$  c #395972",
"%  c #375E7F",
"&  c #495A61",
"*  c #69756C",
"=  c #737779",
"-  c #77867A",
";  c #78867B",
":  c #E69B03",
">  c #EB9D02",
",  c #F19F02",
"<  c #E5A601",
"1  c #EFA002",
"2  c #E9AA02",
"3  c #E8AA09",
"4  c #F1A101",
"5  c #EFB001",
"6  c #F3B201",
"7  c #F7BD06",
"8  c #F5B40C",
"9  c #EEA51C",
"0  c #F2A516",
"q  c #F5B612",
"w  c #DFA228",
"e  c #DFA630",
"r  c #E6A223",
"t  c #ECA525",
"y  c #EDA927",
"u  c #E4A62A",
"i  c #EEAA2A",
"p  c #F0A821",
"a  c #F0A829",
"s  c #E7B227",
"d  c #ECB627",
"f  c #E7B42B",
"g  c #EFB92D",
"h  c #F1B623",
"j  c #F2B924",
"k  c #F3BB2A",
"l  c #E7A830",
"z  c #E4AD3C",
"x  c #E9AF3C",
"c  c #E6B33E",
"v  c #EAB43D",
"b  c #E5BB3E",
"n  c #ECBD3A",
"m  c #F0BB32",
"M  c #FDC50B",
"N  c #FEC614",
"B  c #F8C325",
"V  c #FCC927",
"C  c #F7C52F",
"Z  c #FAC62A",
"A  c #EBC13E",
"S  c #E4B543",
"D  c #E4BF44",
"F  c #ECB946",
"G  c #E7B748",
"H  c #E8B748",
"J  c #E6BA4A",
"K  c #ECBB48",
"L  c #EABB51",
"P  c #E6C143",
"I  c #ECC342",
"U  c #E9C847",
"Y  c #E5C04B",
"T  c #EBC54A",
"R  c #EEC94D",
"E  c #F0C740",
"W  c #F3CD42",
"Q  c #F2CA4B",
"!  c #F7D357",
"~  c #F1C67D",
"^  c #FED37E",
"/  c #2E5D83",
"(  c #2E6085",
")  c #2F6288",
"_  c #3F6382",
"`  c #31638A",
"'  c #356B94",
"]  c #3B729E",
"[  c #3F79A6",
"{  c #67798A",
"}  c #7D8D82",
"|  c #7E878F",
" . c #4B81AD",
".. c #4987B9",
"X. c #478ABD",
"o. c #539AD3",
"O. c #559FD9",
"+. c #5AA6E3",
"@. c #5BA9E7",
"#. c #5DACEA",
"$. c #60AFF0",
"%. c #64B5F6",
"&. c #65B6F8",
"*. c #8E9F95",
"=. c #9BAE9F",
"-. c #9CADA0",
";. c #B2C7B6",
":. c #BACEBE",
">. c #D6C69E",
",. c #FCD481",
"<. c #FDD883",
"1. c #FCDF8D",
"2. c #C9C0AD",
"3. c #DDD1AC",
"4. c #D5CCB8",
"5. c #D9CFBC",
"6. c #C3D0BE",
"7. c #DDD5B2",
"8. c #DDD5BF",
"9. c #E1D3AC",
"0. c #E1D6B0",
"q. c #E0DDB6",
"w. c #BACFC0",
"e. c #BDD1C1",
"r. c #C1D6C7",
"t. c #C5DAC9",
"y. c #C9DECD",
"u. c #DED6C1",
"i. c #E1D8C4",
"p. c #C9E0CE",
"a. c #D3E4CC",
"s. c #CEE3D3",
"d. c #D3E7D3",
"f. c #D2E9D7",
"g. c #D6EDDC",
"h. c #D9EEDE",
"j. c #E7E1CB",
"k. c #EFEAD4",
"l. c #E8ECD8",
"z. c #F3E8D3",
"x. c #F7EEDB",
"c. c #F8F1DE",
"v. c #DCF1E1",
"b. c #FAF3E3",
"n. c #FCF7EA",
"m. c #FEF9ED",
"M. c #FFFBF1",
/* pixels */
"&.&.&.&.&.&.&.&.&.&.&.&.&.&.&.&.&.&.&.&.&.&.&.&.&.&.&.&.&.&.&.&.",
"&.&.&.&.&.&.&.&.&.&.&.&.&.&.&.&.&.&.&.&.&.&.&.&.&.&.&.&.&.&.&.&.",
"&.&.&.&.&.&.&.&.&.&.&.&.&.&.&.&.&.&.&.&.%.&.&.&.&.&.&.&.&.&.&.&.",
"&.&.&.&.&.&.&.&.&.&.O.] ] ] ] ] ] ] ] ] @.%.&.&.&.&.&.&.&.&.&.&.",
"&.&.&.&.&.&.&.%.) ( | 2.2.2.2.2.2.2.2.2.{ ` %.&.&.&.&.&.&.&.&.&.",
"&.&.&.&.&.&.%.% 5.8.j.n.m.m.m.m.m.n.n.c.i.4._ %.&.&.&.&.&.&.&.&.",
"&.&.&.&.%.%.) 4.m.m.m.M.m.M.x.m.M.M.m.M.m.n.4.` &.&.&.&.&.&.&.&.",
"&.&.&.&.&.%./ 8.m.z.c.M.M.M.M.M.m.b.z.b.M.x.u.( &.&.&.&.&.&.&.&.",
"&.&.&.&.&.&./ 8.n.x.b.m.n.m.M.m.b.n.x.n.M.M.u.) &.&.&.&.&.%.&.&.",
"&.&.&.&.&.&./ 8.M.M.M.b.z.n.M.M.M.M.M.n.m.m.u.X X.X.X.X.%.%.&.&.",
"&.&.&.&.&.&./ u.b.M.M.n.b.n.M.b.M.M.M.n.m.M.j.=.-.=.=.=. .%.&.&.",
"&.&.&.&.&.$./ q.b.M.M.M.M.M.M.n.M.M.M.M.M.m.k.g.g.g.g.g.=.[ &.&.",
"&.&.&.&.&.&.+.= b.,.<.1.1.,.^ ^ ^ ^ ^ ^ ~ ,.6.* * * * r.w.o &.&.",
"&.&.&.&.&.&.&.. c.N C T ! V 7 M M M M M M Z ;.# +.+.) w.e.o &.&.",
"&.&.&.&.&.&.%.. c.E n ! T B W A M Z U f 7 Q ;./ %.&.' w.e.o &.&.",
"&.&.&.&.&.&.&.. c.n f T T h F A 6 d Y m < Y ;./ %.&.' :.e.o &.&.",
"&.&.&.&.&.&.%.. c.I k J T j I A 2 d D d 2 Y ;.( %.&.' :.e.o &.&.",
"&.&.&.&.&.&.&.. l.T k Q Q k I A 6 k P s 5 P ;.( %.&.' w.e.o &.&.",
"&.&.&.&.&.&.&.  a.A k R T j I A 6 d U d q Y ;.( %.&.' w.e.o &.&.",
"&.&.&.&.&.&.&.  a.n k T R q b A 6 s P j 8 T ;./ %.&.' e.e.o &.&.",
"&.&.&.&.&.&.%.  a.T f Q Q j n A 3 g D d 6 T ;.( &.&.' w.e.o &.&.",
"&.&.&.&.&.&.&.  a.c u F K p S v : y S t 1 G ;.( %.&.' w.e.o &.&.",
"&.&.&.&.&.&.%.  a.z a F F t v v > w S y 1 G ;.( %.&.' :.e.o &.&.",
"&.&.&.&.&.&.%.  a.v i F J r c S 1 i H y 4 G ;.@ O.o./ :.e.o &.&.",
"&.&.&.&.&.&.&.  a.l a H L a e i , t x 9 > x ;.*.} } } r.e.o &.&.",
"&.&.&.&.&.&.%.  a.0 i F H r > > > , , , : t r.s.s.s.s.p.*...&.&.",
"&.&.&.&.&.&.%.  d.9.0.q.q.7.9.9.3.9.9.9.>.>.w.; - - - - X.&.&.&.",
"&.&.&.&.&.&.&.  f.g.g.g.v.v.g.g.g.g.h.h.y.r.;.O o.o.o.o.%.&.&.&.",
"&.&.&.&.&.&.&.  f.g.g.v.v.v.g.g.g.g.g.g.t.r.;./ %.&.&.&.%.&.&.&.",
"&.&.&.&.&.&.&.#.& y.p.p.y.s.s.y.y.y.y.r.:.;.$ $.&.&.&.&.&.&.&.&.",
"&.&.&.&.&.&.&.&.@.+ + O + + + + + + + + + @ %.&.&.&.&.&.&.&.&.&.",
"&.&.&.&.&.&.&.&.&.&.&.&.&.&.&.&.&.&.%.%.&.%.%.&.&.&.&.&.&.&.&.&."
};
