/* XPM */
static char *bone1673261608[] = {
/* columns rows colors chars-per-pixel */
"32 15 34 1 ",
"  c None",
". c black",
"X c #1D1D1D",
"o c #3A3A3A",
"O c #3F3F3F",
"+ c gray28",
"@ c gray33",
"# c #6A6A6A",
"$ c #767676",
"% c #777777",
"& c #797979",
"* c #7C7C7C",
"= c #7E7E7E",
"- c gray55",
"; c #909090",
": c gray57",
"> c #959595",
", c #9D9D9D",
"< c #A4A4A4",
"1 c #A5A5A5",
"2 c gray65",
"3 c #A9A9A9",
"4 c gray71",
"5 c gray78",
"6 c #CBCBCB",
"7 c #D5D5D5",
"8 c #D7D7D7",
"9 c gray87",
"0 c gray90",
"q c #E6E6E6",
"w c #E7E7E7",
"e c #F3F3F3",
"r c gray98",
"t c white",
/* pixels */
" ....                      .... ",
".7www.                    .www7.",
".wttt.                    .tttw.",
".wttt*                    *tttw.",
".wtttt*..................*ttttw.",
".wtttttttttttttttttttttttttttw<.",
" &7tttttttttttttttttttttttt55<@ ",
" .6tt999999999909999999999944;. ",
" &7re433<3<3<<3<3<<3<3<<<3444;X ",
".wtw44#++++++++++++++++++#444>+.",
".<444+X..................X+44>o.",
".<444X                    X#<>o.",
".*---.                    .+$$o.",
".oo+o.                    .+o+o.",
" ....                      .... "
};
