/* XPM */
static char *exit1673260766[] = {
/* columns rows colors chars-per-pixel */
"32 32 77 1 ",
"  c black",
". c #0B0300",
"X c #0C0300",
"o c gray4",
"O c #120400",
"+ c #170600",
"@ c #210B00",
"# c #230F03",
"$ c #240C00",
"% c #210E04",
"& c #291000",
"* c #2F1200",
"= c #361400",
"- c #361500",
"; c #381500",
": c #3D1700",
"> c #411800",
", c #471A00",
"< c #481B00",
"1 c #4D1C00",
"2 c #4F1D00",
"3 c #501D00",
"4 c #581F00",
"5 c #5C2200",
"6 c #632400",
"7 c #6E2700",
"8 c #6F2900",
"9 c #722800",
"0 c #712A00",
"q c #792C00",
"w c #7A2C00",
"e c #7F2D00",
"r c #832F00",
"t c #852F00",
"y c #823000",
"u c #843100",
"i c #8A3300",
"p c #8C3300",
"a c #943600",
"s c #963700",
"d c #993700",
"f c #9A3504",
"g c #9F3900",
"h c #A03704",
"j c #A03800",
"k c #A23A00",
"l c #A63A00",
"z c #AC3D00",
"x c #AE3E00",
"c c #AF3E00",
"v c #B13E02",
"b c #B43F00",
"n c #B03D04",
"m c #B64000",
"M c #B84100",
"N c #C24302",
"B c #C24400",
"V c #C54500",
"C c #CA4700",
"Z c #CB4700",
"A c #C84603",
"S c #C94603",
"D c #CF4800",
"F c #D34A00",
"G c #D54B00",
"H c #D94C00",
"J c #DC4D00",
"K c #E04F00",
"L c #E35000",
"P c #E45000",
"I c #E75002",
"U c #EA5200",
"Y c #ED5300",
"T c #F05401",
"R c #FA5700",
"E c #FB5800",
"W c #FC5800",
/* pixels */
"oooooooooooofMgi82,-&%oooooooooo",
"oooooooooAJAVbgir0,:-&$ooooooooo",
"ooooooooUYJANmkap82<:-#ooooooooo",
"ooooooATWYJGAmcgpy82<-&#oooooooo",
"ooooonKRWYPJANvkpyusklvvcfoooooo",
"oooooNLURWWYHAbdyypakcmBADNcoooo",
"oooohDHPUURWAu76550iakmVGHPLAooo",
"oooovVFHHKNd91>:>>25wfvVHKUWYooo",
"ooo#vNVVGcw<>-****->2rbFHYWWWIoo",
"o##&vbbbmr3;*#OOOO@*;4tcKYWTYYAo",
"%&--lckgt4;$+.    X+$;2wVRRKJJJo",
"&-:,kkaw3;$X        X$-2aWYHGADo",
"-:,2aai5>-+          +*>9AHFZVNd",
"<<28ui82;+.          .@-1uAMMbbb",
"200rty5>*O            O*>7bbzkkk",
"8ripiu5>*O            O*>6aggapi",
"iiagkd6>*O            O*>5rppiy8",
"gggcbb7>*O            O*>5rty002",
"bbbMNAt1-@.          .@-28iu82<<",
"fVVAAHV0>*+          +=>5ias2<:-",
"oZAGJYWa2-@X        X$-3wakk,:-&",
"oHJJPERBw2;$+.    .+$;4tgkcl--&%",
"oAYYYWYKct4;*@OOOO@*;2emvvmv&#%o",
"ooYWWWUGFMt3>-****->2wcFVVNv#ooo",
"oooYRYKJVmgw53>>>>10aBLHHGVvoooo",
"oooAKKHGVmgap85567tAWEUUPHDhoooo",
"oooovNDVBmclspyudbAHYRWWULNooooo",
"oooooohnvvlfayyikbVAJKYWRKnooooo",
"oooooooo#&-,28rpgvmAGHYWTAoooooo",
"ooooooooo#-:,20iafmBDJYUoooooooo",
"ooooooooo#&-:<0yigmBAJAooooooooo",
"oooooooooo%&-<28ikmfoooooooooooo"
};
