/* XPM */
static char *flooring321672932763[] = {
/* columns rows colors chars-per-pixel */
"32 32 29 1 ",
"  c #312B25",
". c #352E27",
"X c #362F28",
"o c #38302A",
"O c #39312A",
"+ c #3A322B",
"@ c #3E352E",
"# c #3F3730",
"$ c #40372F",
"% c #403730",
"& c #423931",
"* c #433931",
"= c #433B32",
"- c #443A33",
"; c #443B33",
": c #453C33",
"> c #443B34",
", c #463D34",
"< c #473D34",
"1 c #473E36",
"2 c #483F36",
"3 c #493F37",
"4 c #4A3F36",
"5 c #494037",
"6 c #4B4137",
"7 c #4B4138",
"8 c #4C4138",
"9 c #4D433A",
"0 c #4E433A",
/* pixels */
";,:5,5,5:55::53,:;3,:5355<3<5<; ",
":,33877800:0808,:705;388085505:+",
"&7,,&557555<55,:<:33::,355<,83$+",
"&73&,:5,:388,:&:55<,5:&;:55:<3&+",
":55,>,,,33,5<::<<;:55::::55:55;+",
";835,>55;55:;<:<3;<:35<:::3:88&O",
";85,;>&>3:;;;3<53<55:5:5&::555&O",
";85,55,,3:;;3,85:<:5555<,5:55:&.",
";83::,55:&5555::55,:::3<:5:555:+",
";88:355,335&,3533:55<;;<,,5,3,&+",
"&85:5,:3<<::535,:5:55<<5,3,533$+",
":055,3:>;<:&<5:35:35:<<:3@<5,<$ ",
"&8,,5:,,<<<<::<3<<55;:5::&5:53$+",
"&83:,&,5338<<$<,3<<<55<::5::58;.",
";55:&,55:5:53:;35<553<;;<5:558;O",
":5::55,,5555:<;;<5<<:$;5:5=58<;O",
";<:<5<:5;3::553;;33:;;;:3,5,55;.",
";<53555<:5:3,,3:;<3:;:3:::,535;+",
";38<:55<5<55555:5533::555,:::3*.",
";3<55<5:5<:5<,<:5<<:5<,,535,38*+",
";3<553:558<555:3&:<5:5555:5:<<:+",
";;<::35<<<5<&5<:::<5;;&3535:55:X",
";4<:5;5:<5<<,5;&<53:<;;3:55<35$+",
";5:::<<5<<:53;&:<<&5<;$;<55<<5$ ",
";3<<:;3<:<53:&<5,5:5:5:=;3:5<3$+",
";845<:;;:55::::553:::6::;;3558$.",
";<55<:;;3,:@:&5<:555:65::;;:3;@ ",
";35<53:;55:5,35,:56::5555<<3<3;+",
";5<3555:3:55,5555,:55:::6:5855&.",
";508:5<5353,55,,3355658558:808:+",
";<33<38<,55:5,83533850855:5:8:&.",
"::;::;;&:&&@::&:&&$;&&;;&#;:&@@+"
};
