/* XPM */
static char *beeeb29398f0445cd8829a8680e2662ak509biH5SyL3ZXaS[] = {
/* columns rows colors chars-per-pixel */
"32 32 157 2 ",
"   c None",
".  c #2D0007",
"X  c #2B010A",
"o  c #2B0E13",
"O  c #340B14",
"+  c #3C0C17",
"@  c #3D141C",
"#  c #400212",
"$  c #470E1D",
"%  c #50091D",
"&  c #44151E",
"*  c #491A23",
"=  c #561D2C",
"-  c #651B2F",
";  c #492127",
":  c #4D252C",
">  c #4B2F34",
",  c #4C373A",
"<  c #5B333A",
"1  c #6E2439",
"2  c #652F3A",
"3  c #6C2B3C",
"4  c #71263B",
"5  c #742A3E",
"6  c #60313A",
"7  c #69303E",
"8  c #772E40",
"9  c #792C44",
"0  c #693743",
"q  c #663C43",
"w  c #6A3842",
"e  c #733344",
"r  c #7B3649",
"t  c #7B3D4C",
"y  c #7D3F50",
"u  c #684047",
"i  c #6F464E",
"p  c #77414D",
"a  c #724E56",
"s  c #765056",
"d  c #7E5056",
"f  c #7F5059",
"g  c #82364C",
"h  c #84394E",
"j  c #873D51",
"k  c #8A3C52",
"l  c #8D4154",
"z  c #8F4259",
"x  c #8F485B",
"c  c #91455B",
"v  c #974A62",
"b  c #994D61",
"n  c #8C5662",
"m  c #925361",
"M  c #9E5267",
"N  c #975866",
"B  c #A3566D",
"V  c #A6596E",
"C  c #A95C72",
"Z  c #90616A",
"A  c #866470",
"S  c #8C6A76",
"D  c #976576",
"F  c #946C76",
"G  c #9A6E73",
"H  c #996778",
"J  c #96737A",
"K  c #98727D",
"L  c #A36373",
"P  c #AD6175",
"I  c #B06177",
"U  c #B2647B",
"Y  c #B4697C",
"T  c #A6777E",
"R  c #977982",
"E  c #AA6E82",
"W  c #B46F82",
"Q  c #BA6E84",
"!  c #A17382",
"~  c #AC7486",
"^  c #AE7789",
"/  c #A67B89",
"(  c #A87A89",
")  c #B27386",
"_  c #BB7285",
"`  c #B1768A",
"'  c #BD728A",
"]  c #B47C8B",
"[  c #BE7B92",
"{  c #C3778E",
"}  c #C57A8E",
"|  c #C37690",
" . c #C77B92",
".. c #C97E93",
"X. c #AB8491",
"o. c #B58495",
"O. c #B98596",
"+. c #B18994",
"@. c #BD8699",
"#. c #BD8B9C",
"$. c #B9939D",
"%. c #BC92A1",
"&. c #CB8396",
"*. c #C2869C",
"=. c #CC829A",
"-. c #C7899D",
";. c #D1859B",
":. c #D5899E",
">. c #D8899F",
",. c #CE909E",
"<. c #C58DA0",
"1. c #CC8BA1",
"2. c #D689A2",
"3. c #D88CA3",
"4. c #C094A3",
"5. c #CA91A5",
"6. c #CB95A9",
"7. c #C999A9",
"8. c #DC94A5",
"9. c #D29CA5",
"0. c #DF93AA",
"q. c #D39BAD",
"w. c #DA9BAA",
"e. c #D59DB1",
"r. c #D89BB0",
"t. c #E295AB",
"y. c #E29DAD",
"u. c #E396B0",
"i. c #E49DB3",
"p. c #EA9CB6",
"a. c #E59FB9",
"s. c #D8A2AD",
"d. c #D4A6B5",
"f. c #DDA2B6",
"g. c #DEA4B8",
"h. c #DDACBD",
"j. c #E5A1B6",
"k. c #EAA5B5",
"l. c #E5A4BA",
"z. c #EBA5BE",
"x. c #E4ABBE",
"c. c #E8ABB9",
"v. c #F3A3BE",
"b. c #F9A0BE",
"n. c #ECADC2",
"m. c #F5A5C0",
"M. c #F3ABC3",
"N. c #FCADC6",
"B. c #FEAFC9",
"V. c #EFB2C6",
"C. c #EFB8CB",
"Z. c #F2B4C2",
"A. c #F4B3C9",
"S. c #FFB1CB",
"D. c #F1BCCE",
"F. c #FFB6D1",
"G. c #FFBBD5",
/* pixels */
"                      G G u < q : i s G                         ",
"                  q n T Z d 6 & . + @ ; a J                     ",
"                q n o.9.s.s.X.n m p 2 & @ >                     ",
"                7 L ,.s.Z.c.8.&.Y b Z p O o ,                   ",
"                2 Y &.y.k.y.t.8.Y P x 2 + . o                   ",
"                l { Y V Y } } Y k k h h = . X                   ",
"  A S           L ..B k l Y C 5 - - 1 r 7 # &               R   ",
"F %.4.X.        Y >.P g b &.{ 4 h 5 5 h l % 4           $.+.$.R ",
"( e.n.%.        ;.t.t.2.2...U k C I C c h 9 g           #.n.e.H ",
"  7.F.`         ..3.y.t...2.Q g V U C b B k V           -.n.6.  ",
"  X.A.l.        =.&.=.2.| C k 9 z B B v B U t.Y         a.n.    ",
"    n.n.O.    ~ l.=.{ ..| W k 9 5 h c k ..m.N.-.      i.G.q.    ",
"    #.A.g.~   1.M.3.| |  .W c 9 1 g k B t.B.B.w.    e.G.n.#.    ",
"      d.V.n.[ a.F.p.=.' 2.Q v 9 g 9 v  .p.N.N.j.%.d.A.G.5.      ",
"      R h.A.G.F.S.N.u... .Q B k x V 2.S.m.S.B.M.C.D.n.[         ",
"        / l.F.b.v.S.N.i.2.3.2.2.0.N.S.S.S.B.B.A.V.n.]           ",
"          E v.B.B.B.N.N.B.B.B.B.B.B.S.B.B.B.S.S.A.!             ",
"            v.B.M.N.N.N.B.B.B.B.B.B.B.B.B.F.S.S.n.o.            ",
"          ` M.F.B.B.B.B.B.B.B.B.B.S.B.B.S.B.S.S.A.e.            ",
"          <.A.S.B.B.B.B.S.B.B.B.B.B.B.B.S.B.S.S.B.f.            ",
"          6.S.S.B.B.B.B.B.B.B.B.B.B.B.S.S.B.B.S.B.n./           ",
"          e.F.S.B.B.S.B.B.B.B.B.B.B.B.B.S.S.S.S.N.A.[           ",
"          g.F.B.B.B.B.B.B.B.b.S.B.N.S.B.B.S.S.B.B.F.<.          ",
"          e.S.S.B.B.B.B.B.S.S.B.B.S.B.B.S.B.B.B.N.m.5.          ",
"          q.B.B.S.S.S.S.B.S.S.S.S.S.B.S.S.S.S.S.S.B.#.          ",
"          5.N.F.B.S.S.S.S.S.S.S.B.B.S.S.S.B.S.S.N.N.`           ",
"          O.A.F.S.S.S.S.S.S.S.S.S.S.S.S.S.S.S.S.B.n.~           ",
"            g.N.S.S.B.B.S.S.S.S.S.B.S.B.S.S.B.S.B.g.            ",
"            6.A.S.S.B.N.S.B.B.S.S.S.S.S.S.S.F.S.F.6.            ",
"            R n.F.S.S.B.B.S.S.B.B.S.S.B.S.F.B.N.l.H             ",
"              @.M.F.S.S.S.B.S.S.B.S.S.S.B.S.B.n.^               ",
"                ..b.S.S.S.S.S.S.S.S.S.S.B.N.t.'                 "
};
