/* XPM */
static char *objects1672754042[] = {
/* columns rows colors chars-per-pixel */
"48 64 9 1 ",
"  c None",
". c black",
"X c #000600",
"o c #1A0000",
"O c #003D00",
"+ c #541E00",
"@ c #A35C23",
"# c #1AAF09",
"$ c #5CFB2A",
/* pixels */
"                    XXXXX                       ",
"                   X#$$$#XX  XXXX               ",
"             XXXX X#$$$$$$#XX#$$$X              ",
"            X#$$#X#$$$$$$$$$#$$$$$XXXX          ",
"           X#$$$$$#$$$$$$$$$#$$$$$X$$#X         ",
"           X#$$$$$$#$$$$$$$$$$$$$$$$$$#X        ",
"        XXXOO$$$$$$$$$$$$$$$$$$$$$$$$$#X        ",
"       X##O$$#$$$$$$$$$$$$$$$$$$$$$$$$OOX       ",
"      X#$$#$$$$$$$$$$$$$$$$$$$$$$$$$$O$$X       ",
"      X$$$$$$$$$$$$$$$$$$$$$$$$$$$$$$$$$#X      ",
"     X#$$$$$$$$$$$$$$$$$$$$$$$#$$$$$$$$$#X      ",
"    X###$$$$$$$$$$$$$$##O#$#O#$$$$$$$$$$$#X     ",
"    X###$$$$$$$$$$$$$$$$#OOO##$$$$$$$$$$$#X     ",
"   X###$$$$$$$$$$$$$$$$$$$#O#$$$$$$$$$$$$$X     ",
"   X#$#$$$$$$$$$$$$$$$$$$$$#$$$$$$$$$$$$$$#X    ",
"   X$$$#$$O$$$$$$$$$$$$$$$$$$$$$$$$$$$$$$$$X    ",
"   X#$$##OO$$$$$$$$$$$$$$$$$$$$$$$$$$$$$$$$X    ",
"   X####OO#$$$$$$$$$$$$$$$$$$$$$$$$$$$$$$$#X    ",
"    XOOOO###$$$$$$$$$$$$$$$$$$$$$$$$$$$$$$X     ",
"   XOO#O#$$#$$$$$$$$$$$$$$$$$$$$$$$$$$$$$#X     ",
"  XO$$#O#$$$#$$$$$$$$$$$$$$$$$$$$$$$$$$$$$#X    ",
"  X#$$#O##$$$$$$$$$$$$$$$$$$$$$$$$$$$$$$$$#XX   ",
" X#$$##OO#$$$$$$$$$$$$$$$$$$$$$$$$$$$$#$$$$#X   ",
" X#$$$$#O#$$$$$$#$$$$$$$$$$$$$$$$$$$$##O$$$#X   ",
" X#$$$$$##$$$$$$#O$$$$$$$$$$$$$$$$$$$OOOO###X   ",
" XO#$$$$#OO$$$$###OO#$$$$##$$$$$$$$$$$O$$##X    ",
"  XO##$$$$OO$$#$$$$OO#$$###$$$$$$$$$$$#$$$#X    ",
"  XOOOO#$$$OO##$$$$$#O####$$$$$$$$$$$$$#$$##X   ",
"   XO#$O#$$###$$$$$$$###$$$$$$$$$$$$$$$#####X   ",
"   XO$$####O#$$$$$$$$$#$$$$$$$$$$$$$$$$####OX   ",
"  XOO$$$#OOO#$$#$$$$$##$$$$$$$$$$$$#$$O####OOX  ",
"  XO#O##OO$#O###$$$$$###$$$$$$$$$$$$OO#####OOX  ",
"  X#$$OOO$$$$##$$$$$#$$##$#$$O$$$#$$O$$###OOOX  ",
"  X#$$#OO$$$$$#$$#$$$$$$$$$OO#$$#$###$$$###OOX  ",
"  XO##OOOO$#$$#####$$$$$$$$$O###$$$###$$####OX  ",
"   XOOOO#OOO#########$$$$$$$###$$$$######O##X   ",
"    XOO#$$O####O##$$#$$$$$$$#####$$O##O##OOOX   ",
"    XOXO$$#$###OO$$$#O$$$$$$$##O##O####OOOOX    ",
"     XXXO#$$$#$#O$$##O$$$$#$$#OOOOO####OOOX     ",
"      XOOO$$O$$$#####O#$$######OXOO##OOOXX      ",
"      XOOOOO#$$$#O##O#######O##OXOOOOOOOX       ",
"       XOOXO####OXOOO####O##OOOOXXXOOOOOX       ",
"        XXXOOOOOOXXOO###OOOOOOOXXXXXXOOX        ",
"          XOOOOOXXXOOOOOOXOOOOXXXXXXXXX         ",
"           XXXXXXXXXOOOOXXXXXXo...XX....        ",
"            ....oo+XXXXXooooooo..........       ",
"          ....@+o+++oo++oooo+oo+..........      ",
"         ....@@oo+o+o@@++oo++oo@..........      ",
"        .....@.o@++o@@@@+o+@++o+@..........     ",
"       .......o@@@+o@@@@+++@@+oo+o.........     ",
"       .......@@+++.+@+++@+@@+oo@@o........     ",
"       ......@@@@+o.@@@+@@@@@+oo+@@........     ",
"       ......@@@@+.+@@@+@o@@@@+.o+@........     ",
"       ......@@@+o.@@@@@oo+@+@@..++........     ",
"       ......+++o.+@@@+@o.o+@@@@...........     ",
"       ...........@@@+++o.o+@@@@@.........      ",
"        ..........@@@++o...++@@@+.........      ",
"        ..........+++++o....+++++........       ",
"         ................................       ",
"         ...............................        ",
"          .............................         ",
"           ...........................          ",
"            ........................            ",
"                ...........   ....              "
};
